<svg width="24" height="24" viewBox="0 0 24 24" fill="none" xmlns="http://www.w3.org/2000/svg">
<g clip-path="url(#clip0_240_97)">
<path d="M12.8048 11.462L3.08984 22.006L3.09084 22.012C3.38984 23.158 4.41084 24 5.62484 24C6.11084 24 6.56584 23.866 6.95684 23.63L6.98684 23.612L17.9228 17.159L12.8048 11.462Z" fill="#FF4A3B"/>
<path d="M22.633 9.66602L22.624 9.66002L17.903 6.86102L12.583 11.701L17.922 17.158L22.618 14.388C23.0385 14.1528 23.3884 13.8094 23.6314 13.3934C23.8745 12.9773 24.0017 12.5038 24 12.022C24.0025 11.5432 23.8771 11.0724 23.6368 10.6582C23.3964 10.244 23.0499 9.90152 22.633 9.66602Z" fill="#FFCA2E"/>
<path d="M3.09 1.99298C3.03036 2.21814 3.00011 2.45006 3 2.68298V21.316C3 21.556 3.03 21.786 3.09 22.006L13.14 11.73L3.09 1.99298Z" fill="#5495FF"/>
<path d="M12.8768 12L17.9038 6.86L6.98184 0.383C6.57371 0.132953 6.10448 0.000419109 5.62584 0C4.41184 0 3.38884 0.844 3.08984 1.99V1.993L12.8768 12Z" fill="#41D468"/>
</g>
<defs>
<clipPath id="clip0_240_97">
<rect width="24" height="24" fill="white"/>
</clipPath>
</defs>
</svg>
